<svg xmlns="http://www.w3.org/2000/svg" xmlns:xlink="http://www.w3.org/1999/xlink" xmlns:serif="http://www.serif.com/" viewBox="0 0 100 125" version="1.1" xml:space="preserve" style="" x="0px" y="0px" fill-rule="evenodd" clip-rule="evenodd" stroke-linejoin="round" stroke-miterlimit="2"><rect serif:id="80 - math" x="0" y="0" width="100" height="100" style="" fill="none"/><path d="M28.141,17.893l-0,-12.893l-6.003,0l-0,12.893l-9.117,-9.117l-4.245,4.245l9.117,9.117l-12.893,-0l0,6.003l12.893,-0l-9.117,9.117l4.245,4.244l9.117,-9.116l-0,12.893l6.003,-0l-0,-12.893l17.614,17.614l-17.614,17.614c-0,0 -0,-12.893 -0,-12.893l-6.003,0l-0,12.893c-0,0 -9.117,-9.116 -9.117,-9.116l-4.245,4.244l9.117,9.117l-12.893,0l0,6.003l12.893,0l-9.117,9.117l4.245,4.245l9.117,-9.117c-0,-0 -0,12.893 -0,12.893l6.003,-0l-0,-12.893c-0,-0 9.117,9.117 9.117,9.117l4.244,-4.245l-9.116,-9.117l12.893,0l-0,-6.003l-12.893,0l17.614,-17.614c0,-0 17.614,17.614 17.614,17.614c0,0 -12.893,0 -12.893,0l0,6.003l12.893,0l-9.116,9.117l4.244,4.245l9.117,-9.117l0,12.893l6.003,-0l0,-12.893c0,-0 9.117,9.117 9.117,9.117l4.245,-4.245l-9.117,-9.117c-0,0 12.893,0 12.893,0l-0,-6.003l-12.893,0l9.117,-9.117l-4.245,-4.244l-9.117,9.116l0,-35.228l9.117,9.116l4.245,-4.244l-9.117,-9.117l12.893,-0l-0,-6.003l-12.893,-0l9.117,-9.117l-4.245,-4.245l-9.117,9.117l0,-12.893l-6.003,0l0,12.893l-9.117,-9.117l-4.244,4.245l9.116,9.117l-12.893,-0l0,6.003l12.893,-0l-9.116,9.117l4.244,4.244l9.117,-9.116l0,35.228l-39.473,-39.473l12.893,-0l-0,-6.003l-12.893,-0l9.116,-9.117l-4.244,-4.245l-9.117,9.117Zm53.739,54.193l12.893,0c-0,0 -0,5.549 -0,5.549c-0,0 -12.94,0 -12.94,0l-0.08,0.194l9.15,9.15c-0,-0 -3.924,3.924 -3.924,3.924c-0,-0 -9.15,-9.15 -9.15,-9.15l-0.194,0.08l0,12.94c0,-0 -5.549,-0 -5.549,-0l0,-12.893l9.794,-9.794Zm-49.815,5.776l9.116,9.117c0,-0 -3.923,3.924 -3.923,3.924c-0,-0 -9.15,-9.15 -9.15,-9.15l-0.194,0.08l-0,12.94c-0,-0 -5.549,-0 -5.549,-0c-0,-0 -0,-12.94 -0,-12.94l-0.194,-0.08l-9.15,9.15c0,-0 -3.924,-3.924 -3.924,-3.924l9.117,-9.117l13.851,0Zm-0,-49.721l39.827,39.828l0.194,-0.081l0,-35.729l2.775,-2.775l2.774,2.775l0,35.682l-9.794,9.794l-12.893,0c0,0 0,-5.549 0,-5.549c0,0 12.94,0 12.94,0l0.081,-0.194l-17.969,-17.968l-17.935,17.935l-13.851,0l-9.117,-9.117c0,0 3.924,-3.923 3.924,-3.923c0,-0 9.15,9.15 9.15,9.15l0.194,-0.081l-0,-12.94c-0,0 5.549,0 5.549,0c-0,0 -0,12.94 -0,12.94l0.194,0.081l17.968,-17.969l-17.935,-17.935l-0,-3.924l3.924,-0Zm-9.927,3.924l-9.117,9.116l-3.924,-3.923l9.117,-9.117l3.924,-0l-0,3.924Zm45.703,-9.7l2.775,2.774l-2.775,2.775l-12.893,-0c0,-0 0,-5.549 0,-5.549l12.893,-0Zm14.039,-0l12.893,-0l-0,5.549l-12.893,-0l-2.775,-2.775l2.775,-2.774Zm-59.742,-4.151l-0,3.924l-3.924,-0l-9.117,-9.117c0,0 3.924,-3.924 3.924,-3.924l9.117,9.117Zm6.003,0l9.117,-9.117c-0,0 3.923,3.924 3.923,3.924l-9.116,9.117l-3.924,-0l-0,-3.924Zm49.494,-0.094l-2.774,2.775l-2.775,-2.775l0,-12.893c0,0 5.549,0 5.549,0l0,12.893Z"/></svg>
