<svg xmlns="http://www.w3.org/2000/svg" xmlns:xlink="http://www.w3.org/1999/xlink" version="1.1" x="0px" y="0px" viewBox="0 0 512 640" style="enable-background:new 0 0 512 512;" xml:space="preserve"><g><path d="M465.51,302.03c-23.1,0.7-41.99,3.78-56.14,9.15c-0.74,0.28-1.53,0.24-2.24-0.1c-0.68-0.34-1.17-0.92-1.39-1.65   c-1.57-5.28,4.91-9.62,10.61-12.33c10.94-5.19,32.64-10.75,51.79-15.66l0.94-0.24c5.71-1.46,9.59-6.6,9.45-12.48   c-0.38-14.87-1.18-29.37-2.39-43.1c-0.31-3.55-2.13-6.81-4.99-8.95c-2.85-2.13-6.48-2.95-9.96-2.24   c-19.93,4.04-37.4,10.05-51.91,17.85c-3.01,1.62-6.51,1.67-9.6,0.14c-3.08-1.53-5.16-4.34-5.69-7.71   c-2.07-13.06,4.3-23.49,18.95-31c10.97-5.63,27.88-13.22,45.7-21.16c5.5-2.45,8.51-8.51,7.16-14.4   c-2.21-9.61-4.75-18.91-7.52-27.66c-1.25-3.93-4.34-7-8.27-8.22c-3.92-1.21-8.2-0.43-11.44,2.1c-5.86,4.57-11.83,9.31-17.6,13.89   c-11.56,9.18-22.48,17.84-29.66,22.92c-8.57,6.06-16.29,6.49-22.96,1.25c-1.44-1.13-2.25-2.84-2.23-4.68   c0.03-1.9,0.92-3.65,2.46-4.79c18.82-13.96,34.91-42.16,49.19-86.22c1.97-6.08,0.48-12.77-3.9-17.47   c-29.81-31.99-62.84-39.11-85.29-39.45c-26.93-0.4-54.08,8.57-74.49,24.62c-22.32,17.55-31.34,39.43-24.63,57.9   C186.03,60.08,135,43.74,77.14,43.74c-1.1,0-2,0.9-2,2s0.9,2,2,2c56.37,0,106.16,15.73,148.62,46.86   c-26.24-6.39-94.56-18.27-142.39,16.11c-31.61,22.73-48.4,61.34-49.88,114.76c-0.16,5.58,3.9,10.25,9.44,10.87   c31.69,3.56,76.01,4.28,107.2-12.48c0.99-0.53,2.14-0.59,3.17-0.17c1.03,0.42,1.82,1.29,2.15,2.36   c3.79,12.34-4.24,19.09-11.65,22.58c-7.95,3.75-20.87,8.99-34.54,14.53c-14.93,6.06-30.37,12.32-42.81,17.98   c-2.78,1.27-4.86,3.67-5.72,6.6c-0.85,2.92-0.39,6.07,1.27,8.62c2.26,3.48,4.66,7.04,7.15,10.6c1.63,2.33,4.19,3.91,7.03,4.34   c29.68,4.45,84.93,8.97,121.47-10.8c0.92-0.5,1.99-0.56,2.96-0.18c0.95,0.38,1.64,1.12,1.96,2.08c2.28,6.95,2.13,16.59-11.51,23.02   c-7.95,3.75-20.87,8.99-34.55,14.53c-10.84,4.4-22.05,8.94-32.23,13.32c-3,1.29-5.18,3.97-5.82,7.18   c-0.64,3.19,0.32,6.48,2.58,8.82c20.87,21.59,43.27,41.6,66.58,59.47c3.11,2.39,7.36,2.7,10.81,0.8   c22.47-12.37,42.57-27.65,59.76-45.4c2.58-2.67,6.19-3.95,9.89-3.51c3.64,0.43,6.78,2.47,8.63,5.6c4.39,7.43,3.72,14.78-1.97,21.85   c-5.51,6.84-14.84,17.21-24.72,28.19c-4.11,4.57-8.35,9.28-12.5,13.94c-1.79,2.01-2.58,4.7-2.15,7.36c0.42,2.66,2,4.96,4.32,6.31   c32.07,18.66,62.26,30.65,89.73,35.65c9.63,1.75,18.86,2.63,27.67,2.63c19.25,0,36.49-4.18,51.47-12.5   c43.64-24.24,67.13-82.48,69.83-173.16l0.04-1.55c0.1-3.45-1.25-6.82-3.7-9.26C472.25,303.22,468.95,301.93,465.51,302.03z    M474.37,316.45c-2.65,89.11-25.45,146.21-67.77,169.72c-21.01,11.67-46.75,14.85-76.48,9.44c-27.02-4.92-56.77-16.75-88.44-35.17   c-1.28-0.74-2.15-2.01-2.38-3.48c-0.24-1.47,0.2-2.96,1.19-4.07c4.15-4.66,8.38-9.36,12.49-13.93   c9.92-11.02,19.28-21.42,24.86-28.35c6.74-8.38,7.54-17.51,2.29-26.39c-2.48-4.21-6.71-6.96-11.6-7.54   c-0.64-0.08-1.28-0.11-1.91-0.11c-4.27,0-8.31,1.7-11.33,4.81c-16.91,17.46-36.7,32.49-58.82,44.68c-2.06,1.14-4.59,0.95-6.45-0.47   c-23.15-17.75-45.41-37.63-66.14-59.07c-1.36-1.41-1.92-3.32-1.53-5.25c0.39-1.94,1.66-3.51,3.48-4.29   c10.15-4.36,21.34-8.9,32.16-13.29c13.73-5.57,26.7-10.83,34.75-14.62c17.14-8.08,15.88-20.94,13.61-27.88   c-0.68-2.08-2.24-3.74-4.28-4.55c-2.07-0.82-4.38-0.69-6.34,0.37c-35.52,19.21-89.79,14.74-118.98,10.36   c-1.76-0.26-3.35-1.24-4.35-2.67c-2.46-3.52-4.84-7.05-7.07-10.49c-1.02-1.58-1.31-3.51-0.78-5.32c0.53-1.81,1.82-3.3,3.54-4.08   c12.37-5.63,27.76-11.88,42.66-17.92c13.73-5.57,26.7-10.83,34.75-14.62c16.85-7.94,15.86-20.56,13.77-27.37   c-0.68-2.23-2.31-4.01-4.45-4.89c-2.14-0.88-4.54-0.75-6.59,0.35c-16.72,8.98-48.48,18.36-104.86,12.03   c-3.46-0.39-5.99-3.3-5.89-6.78c1.45-52.11,17.67-89.66,48.22-111.62c54.44-39.14,136.78-16.46,148.34-13   c10.94,8.75,21.38,18.55,31.29,29.43c84.37,92.7,105.68,234.63,99.3,302.31c-0.1,1.1,0.7,2.08,1.8,2.18   c0.06,0.01,0.13,0.01,0.19,0.01c1.02,0,1.89-0.78,1.99-1.81c6.45-68.36-15.08-211.72-100.32-305.37   c-9.99-10.98-20.53-20.88-31.56-29.72c-11.74-17.97-3.96-41.64,19.84-60.36c19.7-15.5,45.94-24.15,71.96-23.77   c21.68,0.33,53.58,7.22,82.43,38.17c3.39,3.64,4.54,8.81,3.02,13.51c-14.02,43.24-29.65,70.79-47.77,84.24   c-2.55,1.89-4.04,4.79-4.08,7.95c-0.04,3.1,1.33,5.97,3.76,7.88c5.65,4.44,15.05,7.84,27.74-1.13   c7.26-5.14,18.22-13.84,29.83-23.05c5.77-4.58,11.73-9.31,17.58-13.87c2.24-1.75,5.08-2.27,7.79-1.43   c2.72,0.84,4.78,2.89,5.64,5.61c2.75,8.64,5.25,17.84,7.44,27.34c0.93,4.03-1.12,8.17-4.88,9.84   c-17.88,7.96-34.84,15.58-45.9,21.26c-20.38,10.45-22.71,24.9-21.07,35.19c0.74,4.67,3.61,8.55,7.87,10.66   c4.26,2.11,9.1,2.04,13.27-0.2c14.17-7.62,31.27-13.49,50.81-17.46c2.37-0.48,4.83,0.08,6.77,1.53c1.95,1.46,3.19,3.68,3.4,6.09   c1.2,13.64,2,28.06,2.37,42.85c0.1,4.01-2.55,7.51-6.44,8.51l-0.94,0.24c-19.32,4.95-41.23,10.56-52.51,15.92   c-12.9,6.12-14.04,12.67-12.73,17.08c0.54,1.8,1.76,3.26,3.45,4.09c1.69,0.84,3.66,0.93,5.43,0.26c13.74-5.21,32.19-8.2,54.85-8.89   c2.38-0.07,4.59,0.81,6.27,2.49c1.69,1.69,2.59,3.93,2.52,6.32L474.37,316.45z"/><path d="M256.4,171.51c5.71-0.17,11.62-0.35,11.58-6.38c-0.07-9.57-17.63-18.38-34.93-22.15c-18.26-3.97-41.38,5.15-42.36,5.54   c-0.41,0.17-0.76,0.46-0.98,0.85c-0.25,0.43-6.01,10.53,0.09,19.25c3.98,5.68,18.64,9.83,32.04,9.83c6.85,0,13.37-1.08,17.97-3.6   C245.3,171.84,251.45,171.66,256.4,171.51z M193.06,166.33c-3.9-5.58-1.18-12.34-0.21-14.35c3.93-1.46,23.95-8.43,39.34-5.08   c19.58,4.26,31.74,12.8,31.78,18.27c0.01,1.76-1.28,2.15-7.7,2.35c-5.37,0.16-12.06,0.36-18.4,3.84   C226.46,177.6,197.95,173.32,193.06,166.33z"/><path d="M298.46,305.89c-8.22-7.4-22.47,1.47-38.98,11.74c-1.49,0.93-3,1.87-4.53,2.81c-2.56,1.58-6.51,2.64-10.68,3.76   c-5.04,1.35-10.26,2.76-14.01,5.34c-4.65,3.2-6.23,7.7-4.69,13.4c0.99,3.69,2.87,6.27,5.59,7.68c1.72,0.9,3.66,1.27,5.74,1.27   c4.98,0,10.8-2.11,16.47-4.18c3.89-1.41,7.56-2.75,10.7-3.32c6.25-1.14,11.06-4.52,15.3-7.5c4.66-3.28,8.68-6.11,13.73-5.75   c4.63,0.33,8.3-1.87,10.07-6.04C305.75,319.02,303.68,310.58,298.46,305.89z M299.49,323.52c-1.11,2.61-3.16,3.82-6.1,3.62   c-6.46-0.47-11.47,3.06-16.32,6.46c-4.1,2.88-8.33,5.86-13.72,6.84c-3.48,0.63-7.3,2.03-11.35,3.5c-7.23,2.63-14.71,5.35-19,3.12   c-1.7-0.89-2.87-2.58-3.57-5.18c-1.09-4.04-0.13-6.84,3.1-9.06c3.19-2.19,8.07-3.5,12.78-4.77c4.47-1.2,8.69-2.33,11.75-4.22   c1.53-0.94,3.05-1.89,4.55-2.82c14.51-9.02,28.21-17.55,34.19-12.16C300.22,312.85,301.16,319.58,299.49,323.52z"/><path d="M437.46,353.14c0-4.76-2.69-9.11-7.18-11.62c-3.56-1.99-7.43-2.31-9.86-0.81c-0.31,0.19-0.62,0.37-0.94,0.56   c-5.09,2.94-9.13,6.68-6.99,22.86c0,0,0,0.01,0,0.01c0.01,0.06,0.76,5.65,0.76,13.03c0,4.33-1.35,7.07-3.06,10.55   c-1.01,2.06-2.16,4.39-3.07,7.27c-2.03,6.42,1.66,13.33,10.12,18.98c0.6,0.4,1.27,0.6,1.95,0.6c0.33,0,0.67-0.05,1-0.14   c3.31-0.96,5.98-6.65,10.06-15.86c2.32-5.24,4.73-10.67,6.7-12.92c4.35-4.97,2.87-14.53,1.57-22.96   C437.99,359.08,437.46,355.69,437.46,353.14z M433.96,383c-2.38,2.72-4.79,8.17-7.35,13.94c-2.09,4.71-5.54,12.5-7.34,13.56   c-3.34-2.27-10.34-7.91-8.32-14.3c0.82-2.59,1.85-4.69,2.84-6.71c1.78-3.63,3.47-7.05,3.47-12.31c0-7.63-0.76-13.28-0.79-13.57   c-1.96-14.84,1.59-16.89,5.02-18.87c0.36-0.2,0.71-0.41,1.04-0.62c0.97-0.59,3.33-0.48,5.81,0.9c3.21,1.79,5.13,4.83,5.13,8.12   c0,2.86,0.55,6.4,1.12,10.14C435.7,370.48,437.08,379.43,433.96,383z"/></g></svg>
