<svg xmlns="http://www.w3.org/2000/svg" data-name="Слой 1" viewBox="0 0 100 125" x="0px" y="0px"><title>book</title><path d="M58.00693,38.78837c.73506.02805.75345.03377.93162-.53939.12182-.3919.17939-.80345.273-1.2045.16206-.69447.29529-1.39833.50636-2.07784a1.04439,1.04439,0,0,1,1.48349-.39855c.21475.18492.19825.39966.08034.66658-.37734.85416-.71983,1.72384-1.06878,2.59034-.11092.27543-.2.55966-.33318.93652.92469-.10052,1.69012-.22807,2.05077-1.18248a17.04408,17.04408,0,0,1,.817-1.61158c.37612-.74371.76777-.869,1.64164-.48107A2.75994,2.75994,0,0,1,63.69665,37.17a3.76527,3.76527,0,0,0-.8829,1.28,16.26565,16.26565,0,0,1,4.696,2.07925,13.42431,13.42431,0,0,0,2.50288,1.05571c1.85146.71285,3.71275,1.40018,5.56351,2.11481a2.44743,2.44743,0,0,1,1.50648,1.41406,6.0466,6.0466,0,0,0,2.04976,2.221c1.11554.89511,2.19127,1.84818,3.2145,2.84762,1.0107.98719.7237,1.85046-.01717,2.76386a.82178.82178,0,0,1-.11293.121q-1.95079,1.596-3.90261,3.19068c-1.23565,1.01464-2.463,2.03945-3.70027,3.052-1.0659.87227-2.14045,1.734-3.21168,2.59968-.53589.4331-1.068.87106-1.61036,1.296-1.93182,1.51361-3.872,3.01659-5.79944,4.53573-1.0168.80139-2.013,1.62885-3.01994,2.44279-.69045.55812-.87448.60612-1.591.12005-1.04469-.70864-2.03883-1.49133-3.07339-2.21548a45.47942,45.47942,0,0,0-6.32569-3.90138c-1.36548-.6554-2.72821-1.31945-4.06472-2.0312-.89673-.47754-1.733-1.06727-2.61827-1.568-1.43724-.81287-2.86838-1.64347-4.35187-2.36412a6.16235,6.16235,0,0,0-1.99872-.43676,2.32778,2.32778,0,0,1-1.28678-.47345c-.49352-.39627-1.02195-.74945-1.53956-1.11523a2.83922,2.83922,0,0,1-1.288-1.94016,1.71143,1.71143,0,0,0-.34091-.72976,5.63879,5.63879,0,0,0-2.3275-1.80827c-1.57237-.66623-3.15788-1.30153-4.74079-1.94262a3.08881,3.08881,0,0,0-.63581-.17717,9.84489,9.84489,0,0,1-5.56894-3.46884c-.5022-.54573-1.04909-1.05194-1.59568-1.5543A3.60568,3.60568,0,0,0,17,44.19529a4.39471,4.39471,0,0,1,1.46692-1.59105,70.506,70.506,0,0,1,7.48729-4.19988,42.325,42.325,0,0,0,4.13543-2.25182c2.31276-1.39783,4.6671-2.71272,7.10326-3.882a2.96162,2.96162,0,0,0,.8592-.48806c.55786-.57153,1.22635-.40743,1.87957-.37092.12272.00686.23446.13165.36073.17344a1.07963,1.07963,0,0,0,.4997.10636,5.18648,5.18648,0,0,1,3.221.7396c.346.1541.65582.39313,1.00626.533,1.6104.64268,3.21141,1.31626,4.85031,1.87805,1.58838.54448,3.22172.9567,4.82936,1.44654.63214.19261,1.25844.41332,1.86892.66589C57.37027,37.28641,57.67127,37.6942,58.00693,38.78837ZM30.73717,50.806c-.07549.4691.24867.64559.6551.75276l-.66562-.73722.05964-.427c-.95334-.523-.95334-.523-1.39525-.19719C29.87948,50.41686,30.30919,50.61,30.73717,50.806ZM36.3346,33.9693a12.59879,12.59879,0,0,0-3.18693,1.75147,2.088,2.088,0,0,0,.74609-.26837c.81412-.4913,1.6189-.998,2.42738-1.49889l.93326-.29679-.06673-.16378A1.2834,1.2834,0,0,0,36.3346,33.9693Zm8.05458,22.74243a19.47246,19.47246,0,0,0-4.71412-2.64582c.4497.26848.80021.46906,1.142.68362.66659.41855,1.32827.84492,1.992,1.26805a9.8997,9.8997,0,0,1-1.317-.65483c-.88615-.61109-1.92773-.9055-2.79784-1.59852-.96016-.76475-2.85192-.13466-3.60681.95845.42085.14247.854.27516,1.27682.43514.89187.33745,1.7771.69237,2.66824,1.03181a2.90152,2.90152,0,0,0,.45157.096l.0226-.0834-1.77343-.96359.5904-.06361a2.28688,2.28688,0,0,0,1.24175.60163,1.79535,1.79535,0,0,0-1.24887-.59293,6.15245,6.15245,0,0,0-.69124-.36066c-.3821-.14417-.77845-.25059-1.16878-.373a1.04522,1.04522,0,0,1,.66791-.1051,10.41078,10.41078,0,0,1,2.87874.84917,1.10041,1.10041,0,0,0,.466.10463,2.63552,2.63552,0,0,1,1.86243,1.21356,1.60925,1.60925,0,0,0-1.36429.57778l1.45409.78065-.316.35429c.7986.35438,1.56163.70478,2.33776,1.02333.10376.04259.27365-.07592.32906-.09339-.39892-.37135-.77825-.7443-1.18077-1.09027a2.90739,2.90739,0,0,0-.623-.38623c-.29479-.14394-.607-.25186-.90456-.39071-.04765-.02224-.05767-.12512-.10788-.24526l.68569.10943-.19011-.65212a3.2606,3.2606,0,0,0,.66755.35225.79.79,0,0,1,.5722.58889l-.73522-.296-.07177.19707,1.0507.4209.1307-.16431-.28711-.12808a3.71282,3.71282,0,0,1,.60948.16918c.46782.21739.92276.46251,1.38287.6965.41408.18115.83954.34033,1.2401.54761,1.17327.60716,2.3479,1.21334,3.50031,1.85863.93661.52444,1.84217,1.10435,2.76033,1.66157a.87673.87673,0,0,1,.12617.11644l-.1179.43391c.47723.29348.98729.56187,1.44474.90119.46069.34173.86913.75394,1.30046,1.13527l-.1164.13331c-.75467-.26-1.15419-1.04964-1.95238-1.3913.12817.824-.45242.2193-.70863.41119.98469.95755,2.53612,1.03234,3.42127,2.2429a1.5039,1.5039,0,0,1-1.30865-.22793c-.94661-.66439-1.92781-1.28118-2.912-1.8897-.78237-.48372-1.58993-.92671-2.38631-1.38779l.035-.08335.898.23911.05377-.11792-1.94263-1.43895-1.44424-.65691a4.04278,4.04278,0,0,0-2.18761-.86132l-.03513.362.01062-.01414a24.21577,24.21577,0,0,0-3.45638-1.67689c-.44185-.12764-.615-.67477-1.13959-.76211a10.65451,10.65451,0,0,1-1.4946-.462,5.637,5.637,0,0,1-.54391-.19416.63216.63216,0,0,1-.2209-.17785c.1856-.32178-.1161-.39935-.27316-.48566-.79553-.43714-1.60247-.854-2.41328-1.26231a1.53736,1.53736,0,0,0-.45055-.0745,5.10634,5.10634,0,0,0,.7956.636,8.61511,8.61511,0,0,1,1.383,1.15913c.44612.53062,1.094.4008,1.61159.67293,2.02066,1.06242,4.06018,2.08893,6.09218,3.1298.88244.452,1.78509.86973,2.63972,1.36945.99329.58081,1.89354,1.34067,2.92543,1.83062a39.06429,39.06429,0,0,1,3.95753,2.38226c1.12684.7077,2.22436,1.46207,3.46287,2.28041-.3218-.65127-.53987-1.18206-.833-1.66751a11.71749,11.71749,0,0,0-2.02-3.08526c-.073-.06377-.07967-.198-.14333-.27889-.31663-.40243-.63538-.80364-.96825-1.19255-.10377-.12124-.34351-.18516-.367-.30544-.08652-.44235-.45149-.51048-.76405-.66113a54.526,54.526,0,0,1-5.30056-2.47979c-.5333-.33134-1.08259-.63694-1.61488-.94865-.1856.09273-.3552.17746-.525.26241a4.60582,4.60582,0,0,0-.52376-.67745,8.24606,8.24606,0,0,0-.86276-.61081ZM31.63012,50.804c1.02978.47934,1.48836,1.49335,2.14918,2.31594.04336.054-.048.21621-.09488.39879-.59487-1.13949-1.17585-1.609-1.78416-1.56179.43508.54141.87661,1.13514,1.36832,1.68392a6.18063,6.18063,0,0,0,.87394.688l.145-.09781c-.08605-.33817-.19421-.6725-.254-1.01526a3.83091,3.83091,0,0,0-1.49244-2.4022c-.86635-.68-1.76192-1.32324-2.65369-1.97017a5.98114,5.98114,0,0,0-.71595-.40644,23.62887,23.62887,0,0,1-2.53415-1.36574,11.38418,11.38418,0,0,0-4.23859-1.955,2.74159,2.74159,0,0,1-1.44533-.72589c-.20445-.20171-.40218-.41023-.58484-.59714l-1.74437.82194c.3452.39245.67983.74535.98345,1.12317a11.53862,11.53862,0,0,0,3.48068,2.74763,5.21359,5.21359,0,0,0,1.32021.47125,19.64927,19.64927,0,0,1,4.574,1.62761,1.88259,1.88259,0,0,0,.449.10931l.06561-.14662c-.54129-.30717-1.08679-.60727-1.6219-.92483a6.41583,6.41583,0,0,1-.65263-.46618,3.2848,3.2848,0,0,0-.523-.43655c-.51635-.24451-1.05376-.44454-1.60178-.67014l.27068-.72884-1.8244-.97765-.16673.21449.63806.47164c-2.00367-.94061-2.97886-1.59933-3.24246-2.19238.32535.15882.59079.404.83638.38554a2.7836,2.7836,0,0,1,1.52594.55516c.80653.41736,1.58553.88769,2.38052,1.32777a1.32912,1.32912,0,0,0,.59383.2499,1.34821,1.34821,0,0,1,1.0758.53413,2.96452,2.96452,0,0,0,1.31675.79915,7.08182,7.08182,0,0,1,3.14118,2.13021c-.06079.59731-.06079.59731.53.67774ZM54.62939,61.418c.68665-.50416,1.43221-1.06491,2.19139-1.60658,2.55615-1.82374,5.13109-3.62153,7.67-5.46885,1.15716-.84194,2.21562-1.81963,3.37353-2.66043,2.56223-1.86054,5.24391-3.55242,7.68382-5.58741,1.10217-.91927.85758-1.24446-.23288-1.78822-.56242-.28045-1.19634-.41353-1.7847-.64666C71.96879,43.041,70.41379,42.405,68.857,41.77364a9.58278,9.58278,0,0,1-1.81108-.77012,22.803,22.803,0,0,0-3.14563-1.63076,3.15367,3.15367,0,0,0-1.77313-.243c-.65412.0756-1.30349.19838-1.95132.31989a1.07183,1.07183,0,0,0-.91432.60568c-.41453.956-.835,1.91185-1.30933,2.83893-.66363,1.297-1.348,2.58555-2.0833,3.84275a1.067,1.067,0,0,1-1.68744.39368,1.499,1.499,0,0,0-1.16409-.24088,2.08156,2.08156,0,0,1-1.208.00619,3.24,3.24,0,0,1-1.081-.98851,2.77949,2.77949,0,0,0-1.11409-.96062c-3.81087,3.13508-8.31453,5.23519-12.544,7.89879.70037.13275,1.31174.24828,1.923.36456A11.17875,11.17875,0,0,1,42.80562,54.949c1.48854.93622,2.91146,1.97673,4.39947,2.91388a27.66282,27.66282,0,0,0,2.969,1.62574C51.6166,60.16651,53.09869,60.7602,54.62939,61.418Zm2.737-22.62389c-.04438-.77953-.61673-1.11828-1.238-1.36085-.76935-.30037-1.55694-.56123-2.35072-.79049A68.54526,68.54526,0,0,1,45.345,33.77187c-1.159-.50507-2.36929-.89145-3.5504-1.347a1.43543,1.43543,0,0,0-1.19853.0072c-.56922.27135-1.16109.49989-1.71259.80261-.79466.4362-1.55216.93975-2.343,1.38345-1.12942.6337-2.24153,1.31354-3.421,1.83922a31.76274,31.76274,0,0,0-4.9237,2.69327,5.08743,5.08743,0,0,1-.63546.3865c-1.11437.5364-2.24511,1.04-3.34738,1.59986a13.95979,13.95979,0,0,0-1.76116,1.07915,4.93475,4.93475,0,0,0-.93978.91953.70994.70994,0,0,0,.26638,1.16311,3.171,3.171,0,0,0,.629.1891A11.5728,11.5728,0,0,1,26.535,46.30439a9.6621,9.6621,0,0,0,2.2183,1.26989,14.70668,14.70668,0,0,1,3.9923,2.612A4.486,4.486,0,0,1,34.33638,52.256c.12134.41708.23344.83684.36373,1.30584a5.68018,5.68018,0,0,0,.55672-.25958c.89148-.54623,1.77281-1.10916,2.66809-1.649.47183-.2845.97534-.51652,1.44664-.80179,1.64717-.997,3.26581-2.043,4.93549-3.00025a36.37486,36.37486,0,0,0,3.79852-2.47748c.39276-.29554.79175-.58284,1.179-.86736L48.668,42.74879a1.8067,1.8067,0,0,1-1.25469-.70619.47636.47636,0,0,0-.324-.21718,2.95663,2.95663,0,0,1-2.1044-1.15086c-.5858-.59376-1.09921-1.28054-.63865-2.20164.37986-.75969.74009-1.53342,1.18-2.25781.60829-1.00164,1.28611-1.06435,2.14692-.2309a4.71355,4.71355,0,0,1,1.46341,2.22853A30.32815,30.32815,0,0,0,57.36641,38.79415Zm19.56516,7.313C69.92013,50.63479,63.63323,56.18557,56.591,60.68353a14.72889,14.72889,0,0,0-1.41565,1.1429,1.55049,1.55049,0,0,0-.19042.3094A35.09427,35.09427,0,0,1,59.40569,69.442a7.13727,7.13727,0,0,0,2.50021-1.74229l-.16049-.51512-.70665.53c.18566-.63317,1.96926-2.01372,3.20071-2.59436-.28479.55135-.75509.74748-1.09079,1.07046-.34348.33049-.776.58741-.91816,1.0765a225.04612,225.04612,0,0,0,20.089-16.05256,7.215,7.215,0,0,0-.81822-1.08831C79.99334,48.76829,78.45632,47.44263,76.93157,46.10719ZM58.35525,40.06333l-.17677-.16409a45.82519,45.82519,0,0,0-4.52876,2.37835,2.46334,2.46334,0,0,1,.66949,1.90491,12.70815,12.70815,0,0,1-.465,1.855.84193.84193,0,0,0,.83178.30353,1.44169,1.44169,0,0,0,1.2478-.92865,28.24113,28.24113,0,0,1,1.13853-2.64051,1.52675,1.52675,0,0,0,.2247-1.42671Zm-9.34888-.71225c.8428.26366,1.08707.50678.95728.9229a1.47912,1.47912,0,0,1-.39742.60689c-.35466.33109-.70334-.13089-1.05276-.0781-.37055.5792-.43884.94037-.18355,1.11264a.72132.72132,0,0,0,.95922-.23018c.52212-.55549,1.24293-.55206,1.87789-.776.65682-.23169,1.27951-.28227,1.68747.50673a.57308.57308,0,0,0,.84324.26471c1.02458-.62757,2.0538-1.24757,3.19859-1.94178-.39488-.04694-.681-.09191-.96891-.11335-1.53789-.11452-3.07646-.21993-4.61428-.33551-.57544-.04325-1.14876-.11985-1.72467-.14922C49.43919,39.13316,49.28373,39.24629,49.00637,39.35108Zm1.488,5.11677c.43683.51375.7926.99764,1.21577,1.41286a.86.86,0,0,0,1.41608-.057,2.39586,2.39586,0,0,0-.1209-3.12712Zm-1.9161-5.47765L45.44657,38.648a2.48591,2.48591,0,0,0,1.404,2.39639c.251.14189.526.1565.66693-.06857A5.52543,5.52543,0,0,0,48.57823,38.9902Zm-3.05437-1.231,2.88321.50082a4.31022,4.31022,0,0,0-1.28324-1.90285c-.41393-.41274-.75591-.33719-1.04153.19208C45.87746,36.92881,45.71839,37.33305,45.52386,37.75922Zm4.53393,6.30563,2.665-1.87831a1.3454,1.3454,0,0,0-1.7439-.46574c.26455.62794.25092.822-.15791,1.0683a1.07476,1.07476,0,0,1-.68269.163c-.20427-.03807-.375-.25627-.71344-.51ZM50.33331,61.237l.02346-.2403a26.8494,26.8494,0,0,0-3.42666-1.70524,9.75837,9.75837,0,0,0,2.86381,2.04437C49.91951,61.40351,50.15093,61.27474,50.33331,61.237ZM28.80961,38.13562l-.11154-.1382c-.45891.24633-.90313.527-1.38005.7313a9.23462,9.23462,0,0,1-2.35892,1.13094c-.35668.049-.673.39146-1.00774.60022A20.50134,20.50134,0,0,0,28.80961,38.13562Zm7.69907,19.043c.10423-.05678.13451-.06515.15009-.085a.06536.06536,0,0,0-.01554-.06126q-1.31955-.97443-2.64478-1.94111a1.22085,1.22085,0,0,0-.16317.14282ZM19.39962,43.48853c.89785-.15893,1.33835-.88735,2.09091-1.33513C20.88758,42.087,20.3102,42.47952,19.39962,43.48853Zm33.627,19.5677A5.77956,5.77956,0,0,0,50.874,61.90107,5.078,5.078,0,0,0,53.02662,63.05623ZM39.47086,32.057l-.53141-.2153-.60117.72338.04108.07807ZM19.15405,43.63721c-.46335-.2597-.48631.08045-.61712.22646ZM22.39061,41.426l.07976.12191.49208-.33393-.07011-.10639Z"/><path d="M49.10607,61.48046l.23492.60046-.62515.208a2.19736,2.19736,0,0,0-.39656-.33891c-.5821-.29506-1.18956-.54246-1.75971-.85794a11.81872,11.81872,0,0,1-1.10985-.782l-.01061.01411a7.91456,7.91456,0,0,0,2.22272.49934Z"/><path d="M43.613,56.49428l.77623.21744.01345.31835Z"/><path d="M74.76911,52.54462,72.114,55.07222c.03485-.5552.42616-.65642.58168-.97488l-.39083-.20282.47688-.6664-.08235-.11759-2.16709,1.32282-.43665-.17037a.70044.70044,0,0,1,.13563-.17856,2.02751,2.02751,0,0,1,.42752-.24916A11.49689,11.49689,0,0,0,74.23581,51.649c.06118-.05436.13608-.13941.20115-.13637,1.09193.05094,1.41937-.94884,2.10838-1.44851l-.09508-.15674c-.44388.27819-.89888.54033-1.32893.83845-.58946.40864-1.15574.85058-1.7417,1.26445a.74383.74383,0,0,1-.5642.10734,1.90954,1.90954,0,0,1,.2475-.34569c.76016-.67934,1.532-1.34567,2.29027-2.027.11941-.10731.43407-.25426-.10658-.44041l1.55611-.86813c-.22119.89431-1.00463,1.07456-1.36858,1.69029.747-.23777,1.23094-.885,2.03577-1.008.05367.59153-.445.75336-.69172,1.07152-.09348.12057-.30448.22959.0077.3352q-.86757.676-1.73658,1.35012c-.04113.03174-.1147.066-.15294.05021-.48756-.20175-.69647.21585-.96019.4545a8.943,8.943,0,0,0-.73983.84741l.13807.11858c.39926-.33154.79581-.66642,1.199-.99309.17738-.14371.29685-.12816.28018.1394Z"/><path d="M60.21945,64.714a5.85958,5.85958,0,0,1,1.59726-1.73247,16.755,16.755,0,0,0,2.03451-1.6599l-.11434-.16725c-.27618.18377-.55554.36294-.82788.55222A5.92412,5.92412,0,0,1,60.7531,62.843a4.37579,4.37579,0,0,0-1.30806.83353c-.14861.10057-.28791.2149-.57342.42978a1.45729,1.45729,0,0,1,.74872-.89515c1.09281-.69178,2.19681-1.3667,3.27417-2.08179.66317-.44018,1.28561-.94174,1.95781-1.439l.31515.518-1.3537,1.4819,1.12192-.28688.0863.15754c-.20766.2024-.42808.39349-.61988.60994-.26542.29951-.4941.63227-.76645.92476-.30447.327-.59929.6913-1.19668.61439l1.63825-1.58155-.12355-.146A13.93666,13.93666,0,0,1,60.21945,64.714Z"/><path d="M76.454,52.86681a6.323,6.323,0,0,1,2.63925-1.82117l.12005.59389,1.97818-1.13167.10448.09445c-.05467.0942-.087.21822-.16729.27814-1.45148,1.08387-2.91876,2.14691-4.35723,3.24764a6.577,6.577,0,0,0-.84783.9506c-.16169.18471-.32365.36918-.52826.60253l-.41749-.54054c1.17808-.97592,2.32444-1.9323,3.47931-2.87831.36247-.29692.37294-.28416.28224-.80056-.30252.1829-.57136.3454-.84019.508q-.72941.44106-1.45891.88208Z"/><path d="M65.71232,63.68288c-.36849.23345-.73649.46768-1.10609.69935-.04569.02864-.11575.0759-.1479.06016-.69941-.34242-1.00065.29414-1.42226.59363-.42285.30037-.77347.70735-1.209.98359a5.09594,5.09594,0,0,1-1.5334.61328c.31232-.23724.62129-.479.9376-.71083.79709-.5841,1.59212-1.17132,2.40027-1.7398a1.16,1.16,0,0,1,.721-.25775c.32641-.00224.6502-.38839.89924-.74279l-1.03408.49707L64.102,63.5l1.52071-1.33454.79144.20428a2.74882,2.74882,0,0,1-.89048,1.00557c-.17178.15984-.04513.21642.11956.22786Z"/><path d="M63.66211,58.4c-.42022.37263-.74726.65047-1.06008.94351-.30032.28134-.81771.35777-.83472.92247-.00294.09737-.24487.19669-.3858.279a10.6043,10.6043,0,0,1-1.221.68294,2.26082,2.26082,0,0,0-1.30622,1.37464c-.02975-.155-.11605-.32683-.07608-.46107a1.55288,1.55288,0,0,1,.32476-.56841,14.78049,14.78049,0,0,1,3.96932-3.17136.78074.78074,0,0,1,.23011-.08175A1.71634,1.71634,0,0,1,63.66211,58.4Z"/><path d="M63.16347,57.36717a2.94547,2.94547,0,0,1-.35942.38757c-1.3192.99825-2.64807,1.98372-3.96545,2.98433-.30608.23248-.56185.53225-.87229.75765a2.00932,2.00932,0,0,1-1.08636.42775,3.31609,3.31609,0,0,1,1.15044-1.10839c.42827-.30205.87288-.581,1.30067-.88364s.844-.6214,1.26426-.93455.82693-.64585,1.26179-.9368C62.26005,57.79149,62.532,57.29128,63.16347,57.36717Z"/><path d="M77.43158,50.63457l-.4838.53472.05929.09618,1.51909-.93279c-.22355.62842-.67486,1.06391-1.72744,1.74695l-.29476-.07652c-.41879.24625-.84288.48405-1.2545.74174-.27354.17125-.39377.04237-.48032-.20026l.04439-.052c.55567-.4294,1.103-.87045,1.6706-1.28369C76.78163,50.99231,77.11461,50.82445,77.43158,50.63457Z"/><path d="M73.81907,50.4032c-.30538.26557-.59585.64829-.94621.02235-.03461-.06183-.36365.04114-.58267-.03042L76.1779,47.795l.11369.14239c-.75647.96849-2.04567,1.34878-2.84779,2.37229l.30177.01532Z"/><path d="M70.675,58.03257c-.40367.27475-.79719.56631-1.21459.81833-.27683.16716-.29212.14183-.72691-.11334l-1.12577.859-.105-.12258a2.40489,2.40489,0,0,1,.28162-.30985c.62423-.48816,1.24258-.98561,1.88977-1.44183a5.66408,5.66408,0,0,1,.92093-.4341l-.01695-.01644-.43657.82755.45945-.14575Z"/><path d="M68.54889,53.65321l1.43933-.70343c-.16475.59771-.57119,1.01469-1.60859,1.52529l.83388-.48033-.202-.25644-1.98439,1.19295-.10959-.159a6.1118,6.1118,0,0,1,1.39018-1.25836Z"/><path d="M76.504,52.00311l.29476.07652-.68355.72942.33878.0577-.0136-.0149a4.19958,4.19958,0,0,1-1.82679,1.36031,2.15556,2.15556,0,0,1,.8748-1.28405C75.8296,52.6228,76.16563,52.31167,76.504,52.00311Z"/><path d="M72.46809,58.33111a7.91106,7.91106,0,0,1-2.06783,1.47442A7.35373,7.35373,0,0,1,72.41842,57.781l.09013.09985c-.07.076-.14426.14842-.20911.22853-.199.24589.06329.13936.13709.17695Z"/><path d="M60.0579,62.18242a6.81688,6.81688,0,0,1,2.194-1.648C61.57808,61.1592,61.10166,62.04283,60.0579,62.18242Z"/><path d="M77.43235,50.63123l-.06632-.31729-.60353.23321a5.343,5.343,0,0,1,1.91553-1.2946C78.53988,49.73054,78.53988,49.73054,77.43235,50.63123Z"/><path d="M60.05034,65.78262a5.00649,5.00649,0,0,1,2.42515-1.351l-2.29365,1.51828Z"/><path d="M68.10863,58.0034c.58992-.6793,1.065-1.186,2.01088-1.11508A4.69384,4.69384,0,0,1,68.10863,58.0034Z"/><path d="M70.59505,57.28818c.29085-.283.59277-.556.86388-.85679.05931-.0658.00867-.23069.00867-.47295l.71144-.29215A2.41851,2.41851,0,0,1,70.5796,57.2732Z"/><path d="M64.06242,59.19752l-.92706.85612-.26119-.48624A1.41988,1.41988,0,0,1,64.06242,59.19752Z"/><path d="M68.707,56.04356c-.346.45-.30139.99933-.97537,1.02815C67.89125,56.59288,68.22434,56.374,68.707,56.04356Z"/><path d="M67.52326,56.00314l-1.14865.568C66.56364,55.82517,66.87621,55.67471,67.52326,56.00314Z"/><path d="M72.41842,57.781l1.30119-1.21462.10869.1036-1.04156,1.1722.02233-.02155-.30052.06022Z"/><path d="M72.78674,57.84215l1.249-.67875a3.83093,3.83093,0,0,1-1.56768,1.16771l-.03128-.04437q.18641-.23264.37226-.46614Z"/><path d="M70.50674,55.35846l.96532-.4949c-.00519.47737-.31265.5971-.55167.84057Z"/><path d="M66.08337,61.91968c.34236-.20437.20787-.80178.7825-1.03884A1.30217,1.30217,0,0,1,66.08337,61.91968Z"/><path d="M68.5489,53.65322l-.24122-.13934.88115-.96424.12592.09783Z"/><path d="M69.19754,55.5307l.70634-.63042.11655.11544-.68573.647Z"/><path d="M65.64323,63.6032a1.27431,1.27431,0,0,1,1.13289-.49818l-1.06381.57785Z"/><path d="M68.11312,54.98315l-.62792.51271-.08736-.0982.57884-.5502Z"/><path d="M73.74557,50.325l.69532-.48431.10881.15584-.73063.40672Z"/><path d="M70.601,57.95354l.5918-.49463.12062.16235-.63842.41131Z"/><path d="M68.36288,60.47272l.5983-.31917.07923.11654-.55887.40554Z"/><path d="M26.01429,48.962c-.16971-.057-.34328-.10476-.5083-.17311a4.76493,4.76493,0,0,0-.90952-.38614,12.30506,12.30506,0,0,1-2.574-1.18628c-.07539-.032-.187-.06008-.21123-.119-.43473-1.05795-1.55922-1.281-2.32658-1.93375-.0627-.05334-.13193-.09922-.19234-.15486-.01332-.01228-.002-.05135-.00256-.07815a.737.737,0,0,1,.09079-.11119c1.49894.85248,3.03931,1.64353,4.47188,2.5966C24.581,47.90086,25.31532,48.39036,26.01429,48.962Z"/><path d="M42.78384,55.99707l.85429.51612Z"/></svg>
