<svg xmlns="http://www.w3.org/2000/svg" version="1.1" viewBox="-5.0 -10.0 110.0 135.0">
 <path d="m42.211 53.059 0.94922-6.2812v0.003906c-0.99219-0.28516-1.6172-1.2617-1.4609-2.2812 0.007812-0.078125 0.046875-0.14844 0.10938-0.19922 0.0625-0.046875 0.14453-0.066406 0.22266-0.050781 0.078125 0.011719 0.15234 0.050781 0.19922 0.11719 0.050781 0.0625 0.070312 0.14453 0.058593 0.22266-0.11328 0.75391 0.375 1.4688 1.1211 1.6406h0.14844c0.078125 0.011719 0.14453 0.054687 0.1875 0.11719 0.042968 0.0625 0.058594 0.13672 0.042968 0.21094l-1 6.5508c-0.023437 0.14844-0.15234 0.25391-0.30078 0.25-0.15234-0.015625-0.27344-0.14453-0.27734-0.30078zm19.277 34.141c0.82422 1.5391 0.79297 3.3906-0.078125 4.9023-1.1172 1.8125-3.0977 2.9141-5.2305 2.8984h-0.57813c-5.6602 0-32.75-2.0898-33.102-9.0586-0.078125-1.6289 0.87109-3.6602 2.3711-5.8203-4.3594-0.44922-7.6602 5.6602-7.6914 5.7188-0.050782 0.10156-0.15625 0.16016-0.26953 0.16016-5.3008-0.32812-10.66-8.2109-10.66-8.5703 0.003906-0.14453 0.10938-0.26172 0.25-0.28906 0.14062-0.023437 0.27734 0.054687 0.32812 0.1875 0.35938 0.69141 5.2891 7.6016 9.9297 8.0586 0.62109-1.0898 4-6.6016 8.5312-5.8281 4.7383-6.4805 14-13.852 15.18-14.762l0.21875-1.4414 0.003906 0.003906c0.007813-0.078125 0.050782-0.15234 0.11328-0.19922 0.066406-0.046875 0.14844-0.066406 0.22656-0.050781 0.16016 0.027344 0.27344 0.17969 0.25 0.33984l-0.28125 1.5508c-0.011719 0.074219-0.050781 0.14062-0.10938 0.19141-0.19141 0.14062-18.148 14.199-17.82 20.711 0.32031 6.3203 27.949 8.6914 33.059 8.4805v-0.003906c1.9219 0.019532 3.7148-0.96094 4.7305-2.5898 0.78516-1.3164 0.83594-2.9453 0.14062-4.3086-1.6016-3-10.801-20-10.898-20.148v-0.003906c-0.019531-0.058594-0.019531-0.125 0-0.1875l2.8398-19.48c0.007813-0.082031 0.050782-0.15234 0.11719-0.19922 0.0625-0.050782 0.14453-0.070313 0.22266-0.050782h0.26172-0.003907c0.35547 0.0625 0.71875-0.035156 1-0.26172 0.27344-0.21875 0.44531-0.53906 0.47266-0.88672l0.10156-1.4492-12.574-1.7344c-0.16016-0.023437-0.27344-0.17578-0.25-0.33984 0.011719-0.078125 0.050782-0.14844 0.11719-0.19531 0.0625-0.046875 0.14453-0.066407 0.22266-0.054688l12.738 1.8008h0.003906c0.15234 0.027344 0.26172 0.16406 0.25 0.32031l-0.12109 1.7305c-0.042969 0.5-0.29297 0.96094-0.68359 1.2734-0.39453 0.31641-0.89844 0.45312-1.3945 0.38672l-1.3008 9c1.0547 0.21484 1.9844 0.82422 2.5977 1.7109 0.22656 0.28125 0.26953 0.67187 0.10938 1-0.44141 0.89844-2.4883 1.1914-3.2891 1.2617l-0.089843 0.64062v-0.003906c0.85938-0.12891 1.7227 0.22266 2.2422 0.92188 0.20312 0.22266 0.26172 0.54688 0.14844 0.82812-0.32812 0.76953-2.0898 1.0703-2.8086 1.1602l-0.10156 0.62891c0.53906-0.14063 1.5117-0.28906 2 0.35937v0.003907c0.11719 0.16406 0.16406 0.36719 0.12891 0.56641-0.12109 0.80859-1.4297 1.8398-1.8398 2.1484 2.1016 3.8516 8.9102 16.434 10.27 18.973zm-10.648-21.438-0.19922 1.3711 0.28125 0.53125c0.62109-0.48047 1.4688-1.2617 1.5391-1.7109v-0.12109c-0.33984-0.42188-1.25-0.20312-1.6211-0.070312zm0.51953-3.5703-0.23828 1.6719c1-0.14062 2-0.44922 2.1719-0.78125 0 0 0-0.078125-0.070313-0.23047h-0.003906c-0.43359-0.56641-1.1641-0.82422-1.8594-0.66016zm0.67188-4.6016-0.39844 2.7305c1.0781-0.12109 2.4297-0.44922 2.6602-0.91016 0 0 0.070312-0.14844-0.070313-0.37109h-0.003906c-0.53516-0.73828-1.3242-1.2578-2.2188-1.4492zm8.3516-36.41h-0.003906c-0.070312-0.10156-0.19922-0.14844-0.32031-0.12109-1.4883 0.34766-3.0547 0.13672-4.3984-0.58984-3-1.5-4.5898-1.5586-5.4102-1.3516v0.003906c-0.089844 0.023437-0.16406 0.089844-0.19922 0.17969-0.050781 0.085938-0.050781 0.19141 0 0.27734l19.848 30.23c0.73047 1.1289 1.9805 1.8047 3.3203 1.8008 0.70312 0.003906 1.3945-0.17969 2-0.53125 0.96484-0.53906 1.6523-1.4609 1.9023-2.5391 0.24609-1.0703 0.042968-2.1914-0.5625-3.1094zm33.617 10.5c-0.14844 0.51953-3.8789 12.621-10.672 12.621h-0.28125 0.003906c-0.10156-0.007812-0.19141-0.0625-0.24219-0.15234 0 0-3-4.7305-6-6.3594-0.070313-0.035156-0.125-0.097656-0.14844-0.17578-0.027344-0.078125-0.019531-0.16016 0.019532-0.23438 0.082031-0.14062 0.26172-0.19531 0.41016-0.11719 3 1.5586 5.6719 5.6289 6.1914 6.4414h0.10156c6 0 9.6484-10.801 10.059-12.07-0.86328-1.4336-9.4414-16.133-21.68-19.121-2.8633-0.71875-5.8203-0.98828-8.7617-0.79297-0.12109 0.89844-0.76953 3.5195-4.4805 4-0.50391 0.066406-1.0117 0.097656-1.5195 0.10156-2.4688 0-3.25-0.92969-3.4805-1.3398-0.57422 0.32031-1.125 0.68359-1.6484 1.0781 2.1289 3.6719 13.469 2.4922 13.59 2.4414 0.14062-0.019531 0.27734 0.0625 0.32031 0.19922 1.2188 3.6406 8.2188 6.3906 8.3203 6.4219 0.14844 0.058594 0.22266 0.22656 0.16797 0.37891-0.058593 0.15625-0.23047 0.23438-0.39062 0.17969-0.28906-0.12109-7.0703-2.7812-8.5898-6.5195-1.75 0.16016-12.219 1-14.09-3.0781v-0.003906c-0.058594-0.11719-0.03125-0.26172 0.070312-0.34766 1.6172-1.2383 3.4336-2.1914 5.3711-2.8203l-2.3711-3.5703c-0.089843-0.13281-0.058593-0.3125 0.070313-0.41016 0.30859-0.22656 0.50391-0.57422 0.54297-0.95703 0.035157-0.37891-0.085937-0.75781-0.34375-1.043l-0.64844-0.75-12.281 8.5391 0.57812 0.73828 0.003906 0.003907c0.39453 0.51172 1.0977 0.67578 1.6797 0.39062l0.76953-0.37891v-0.003906c0.13672-0.070312 0.30469-0.027344 0.39062 0.10156l23.398 35.699c1.6602 2.5352 5.0039 3.3359 7.6289 1.832 1.3828-0.78516 2.375-2.1055 2.7422-3.6484 0.36719-1.543 0.078125-3.1719-0.80078-4.4922l-15.309-23c-0.089844-0.14063-0.054687-0.32422 0.078125-0.42188 0.14062-0.085937 0.32812-0.046874 0.42188 0.089844l15.309 23c1.3125 1.9453 1.4414 4.4531 0.33594 6.5234-1.1055 2.0664-3.2617 3.3555-5.6055 3.3477-2.1367 0-4.1289-1.0742-5.3008-2.8594l-12-18.359c-2.6016-0.19922-8.3008-0.78906-8.5312-2.1484v-0.003906c-0.035157-0.21094 0.019531-0.42969 0.15234-0.59766 0.73047-1 4.1289-1.5508 5.4414-1.7383l-3.5781-5.4609c-1.2617 0.10938-4 0.62891-4.1797 2l-0.003906-0.003906c-0.027344 0.23047 0.046875 0.46094 0.19922 0.63281 0.78125 1 3.4805 1.4492 4.4492 1.5586 0.14453 0.027344 0.24609 0.15234 0.24609 0.29688 0 0.14453-0.10156 0.26562-0.24609 0.29297-0.16016 0-3.7617-0.39844-4.8594-1.7812-0.25-0.29297-0.37109-0.67969-0.32812-1.0664 0.19922-1.7812 3.1914-2.3281 4.4102-2.4805l-1.5195-2.3086c-1 0-3.1094 0.12109-3.3594 1.1016l-0.003906-0.003907c-0.09375 0.22656-0.066406 0.48438 0.070312 0.69141 0.26172 0.1875 0.58594 0.26172 0.90234 0.19922 0.16406-0.027344 0.32031 0.089843 0.34375 0.25391 0.023438 0.16406-0.089844 0.32031-0.25391 0.34375h-0.30078c-0.42188 0.023437-0.83203-0.12891-1.1406-0.41797-0.26953-0.35156-0.34766-0.8125-0.19922-1.2305 0.33984-1.3398 2.4805-1.5508 3.5508-1.5586l-2.4219-3.6914-0.53125 0.26172c-0.62109 0.30078-1.3555 0.25781-1.9375-0.11328-0.46875 0.44141-0.62891 1.1172-0.41016 1.7227 0.32812 1.2695 2.1914 0.91016 2.2109 0.91016 0.078126-0.019531 0.16016-0.003906 0.22656 0.042969s0.10938 0.11719 0.12109 0.19531c0.03125 0.16016-0.070313 0.31641-0.23047 0.35156-0.22656 0.039062-0.45703 0.0625-0.6875 0.058594-0.98047 0.11719-1.9062-0.46484-2.2227-1.3984-0.26562-0.80469-0.050782-1.6875 0.55078-2.2812l-0.76953-1c-0.046875-0.066406-0.070313-0.14844-0.058594-0.23047 0.015625-0.078126 0.0625-0.15234 0.12891-0.19922l12.609-8.9297c0.11719-0.09375 0.28516-0.09375 0.40234 0l0.82812 1c0.35547 0.41406 0.52344 0.95703 0.46875 1.5-0.050781 0.44141-0.24609 0.85156-0.55859 1.168l2.3203 3.4883v0.003907c1.7539-0.55859 3.5664-0.91406 5.3984-1.0625h0.070313c3.0742-0.21875 6.1641 0.054687 9.1523 0.80078 13 3.1914 22 19.352 22.078 19.52 0.054687 0.058594 0.078124 0.13281 0.070312 0.21094zm-38.531 0.42187-2.1484-3.2891c-1.8711 0.25-4.8203 0.85156-5.3203 1.5391-0.058594 0.078126-0.058594 0.12109 0 0.14063 0 0.50781 3.4297 1.2695 7.4688 1.6094zm-16.867 49.668-1.5-0.37891c-3.5-0.92188-5.6094-1.4609-6.8984 2h-0.003906c-0.21484 0.67188-0.058594 1.4102 0.41016 1.9375 2.3281 3.1289 12.84 6.4609 19.922 6.4609h1.2383c4.2695-0.26172 5.5-2.4297 5.8516-3.6914v0.003906c0.54297-2.3242-0.30078-4.75-2.1602-6.2422-1.2695-0.89062-3.2812-4.1602-5.6484-9.2109h-0.003906c-0.55078-1.2305-1.9453-1.8438-3.2305-1.418-1.2891 0.34766-2.1055 1.6211-1.8789 2.9414 0.23047 1.3555 0.56641 2.6914 1 4 0.46875 0.98438 0.33203 2.1484-0.34766 3-1.043 1.1094-3.6406 1.3594-6.75 0.59766zm-32.133-6.8711c3.7344-3.0898 6.7344-6.9766 8.7812-11.367 2.75-6.3008 12.441-8.5312 19.172-8.1797 0.23047 1.8047 1.7578 3.1562 3.5781 3.168h0.21094c1.7383 0.007813 3.4062-0.67578 4.6406-1.8984 0.67969 0.10156 1.3047 0.41797 1.7891 0.91016 0.11328 0.1875 0.12891 0.41406 0.050781 0.61719-0.37109 1.1797-4.5312 4.3789-11.531 3.1719-0.14844-0.023437-0.28906 0.058594-0.33984 0.19922 0 0-1.5898 4.8281-6.5781 5.4102h-0.003907c-0.054687-0.074219-0.13672-0.12109-0.22656-0.14063-0.25781-0.042968-0.50781 0.097657-0.60156 0.33984-0.058594 0.09375-0.058594 0.21484 0.003906 0.30859 0.058594 0.09375 0.16406 0.14453 0.27734 0.13281h0.17188-0.003906c0.10156 0.80469 0.12109 1.6211 0.0625 2.4297-0.007813 0.082031 0.019531 0.16016 0.074219 0.21875 0.054687 0.058594 0.13281 0.089844 0.21484 0.089844 0.078124 0.003906 0.15234-0.023438 0.21094-0.078125 0.054687-0.054688 0.089844-0.13281 0.089844-0.21094 0.054687-0.82422 0.03125-1.6523-0.070313-2.4688 3.1055-0.5 5.7148-2.6133 6.8477-5.5508 7.1289 1.1406 11.488-2.1484 12-3.6211 0.13281-0.37109 0.09375-0.78125-0.10937-1.1172-0.64063-1-3-1.6016-8.8984-2.3203-0.44922-0.058594-0.92188-0.10156-1.3984-0.12891l-0.003906-0.003906c-0.050781-0.042969-0.12109-0.0625-0.1875-0.058594-0.03125-0.003906-0.0625-0.003906-0.089844 0-7-0.37891-16.941 1.8711-19.852 8.5391-2.0195 4.3125-4.9727 8.1172-8.6484 11.141-0.11719 0.11719-0.11719 0.30469 0 0.42187 0.050782 0.074219 0.13672 0.11719 0.22656 0.11719 0.054687-0.007812 0.10156-0.03125 0.14062-0.070312z"/>
</svg>
